<svg width="24" height="24" viewBox="0 0 24 24" fill="none" xmlns="http://www.w3.org/2000/svg">
<g clip-path="url(#clip0_5_3242)">
<path d="M16.5 8.19901V6.00001H7.49996C6.47885 5.99991 5.47461 6.26041 4.58231 6.75685C3.69 7.25329 2.93916 7.96924 2.40085 8.83693C1.86254 9.70462 1.55459 10.6953 1.50613 11.7153C1.45768 12.7352 1.67033 13.7507 2.12396 14.6655C2.16788 14.7538 2.194 14.8498 2.20081 14.9481C2.20762 15.0465 2.195 15.1452 2.16366 15.2387C2.13232 15.3321 2.08288 15.4185 2.01816 15.4928C1.95344 15.5672 1.87471 15.6281 1.78646 15.672C1.69821 15.7159 1.60217 15.742 1.50383 15.7489C1.40549 15.7557 1.30677 15.743 1.21331 15.7117C1.11985 15.6804 1.03347 15.6309 0.959117 15.5662C0.884763 15.5015 0.823884 15.4228 0.779957 15.3345C0.212317 14.1909 -0.0539804 12.9213 0.00628627 11.646C0.0665529 10.3707 0.451389 9.13184 1.12434 8.04685C1.7973 6.96186 2.73609 6.06663 3.85181 5.44594C4.96752 4.82525 6.22322 4.49966 7.49996 4.50001H16.5V2.30101C16.5 2.22975 16.5203 2.15998 16.5586 2.09986C16.5968 2.03974 16.6514 1.99176 16.7159 1.96154C16.7805 1.93132 16.8523 1.92011 16.9229 1.92923C16.9936 1.93834 17.0602 1.9674 17.115 2.01301L20.655 4.96201C20.835 5.11201 20.835 5.38801 20.655 5.53801L17.115 8.48701C17.0602 8.53261 16.9936 8.56167 16.9229 8.57079C16.8523 8.5799 16.7805 8.56869 16.7159 8.53847C16.6514 8.50825 16.5968 8.46028 16.5586 8.40016C16.5203 8.34004 16.5 8.27026 16.5 8.19901ZM22.215 8.32801C22.393 8.23959 22.5989 8.22547 22.7873 8.28875C22.9758 8.35204 23.1314 8.48755 23.22 8.66551C23.7876 9.80912 24.0539 11.0787 23.9936 12.354C23.9334 13.6294 23.5485 14.8682 22.8756 15.9532C22.2026 17.0382 21.2638 17.9334 20.1481 18.5541C19.0324 19.1748 17.7767 19.5004 16.5 19.5H7.49996V21.699C7.49993 21.7703 7.4796 21.84 7.44136 21.9002C7.40311 21.9603 7.34852 22.0083 7.28399 22.0385C7.21946 22.0687 7.14766 22.0799 7.07699 22.0708C7.00632 22.0617 6.93971 22.0326 6.88496 21.987L3.34496 19.038C3.30275 19.0028 3.2688 18.9588 3.2455 18.909C3.2222 18.8592 3.21013 18.805 3.21013 18.75C3.21013 18.6951 3.2222 18.6408 3.2455 18.591C3.2688 18.5412 3.30275 18.4972 3.34496 18.462L6.88496 15.513C6.93971 15.4674 7.00632 15.4383 7.07699 15.4292C7.14766 15.4201 7.21946 15.4313 7.28399 15.4615C7.34852 15.4918 7.40311 15.5397 7.44136 15.5999C7.4796 15.66 7.49993 15.7298 7.49996 15.801V18H16.5C17.5212 18.0004 18.5256 17.74 19.4181 17.2437C20.3106 16.7474 21.0617 16.0315 21.6002 15.1637C22.1386 14.296 22.4467 13.3052 22.4953 12.2851C22.5438 11.265 22.3311 10.2494 21.8775 9.33451C21.789 9.15646 21.7749 8.9506 21.8382 8.76216C21.9015 8.57371 22.037 8.41659 22.215 8.32801Z" fill="#1B281B"/>
</g>
<defs>
<clipPath id="clip0_5_3242">
<rect width="24" height="24" fill="white"/>
</clipPath>
</defs>
</svg>
